<?xml version="1.0" encoding="UTF-8" standalone="no"?>
<!DOCTYPE svg PUBLIC "-//W3C//DTD SVG 1.1//EN" "http://www.w3.org/Graphics/SVG/1.1/DTD/svg11.dtd">
<svg width="100%" height="100%" viewBox="0 0 515 515" version="1.1" xmlns="http://www.w3.org/2000/svg" xmlns:xlink="http://www.w3.org/1999/xlink" xml:space="preserve" xmlns:serif="http://www.serif.com/" style="fill-rule:evenodd;clip-rule:evenodd;stroke-linejoin:round;stroke-miterlimit:2;">
    <g id="Artboard1" transform="matrix(9.35845,0,0,9.35845,25.36,97.1638)">
        <rect x="-2.71" y="-10.382" width="54.94" height="54.94" style="fill:none;"/>
        <g id="path1" transform="matrix(1.03915,0,0,1.03915,0.619394,-0.0909059)">
            <g id="Layer_1-2">
                <g id="path11" serif:id="path1">
                    <path d="M4.3,33.06c-2.8,-8.14 -5.37,-23.27 -3.84,-31.01c1.4,-1.73 8.1,-2.39 10.93,-1.88c1.77,0.27 1.76,0.26 1.39,1.71c-0.85,4.7 -3.18,16.71 1.08,20.03c3.96,2.1 5.48,-8.59 7.96,-9.7c5.25,-2.66 6.31,16.34 11.7,7.8c1.97,-4.37 0.38,-13.38 0.49,-19.02c1.6,-1.58 11.36,-0.45 12.45,1.74c-0.79,8.33 -2.33,18.8 -4.81,28.85c-0.18,0.56 -13.53,0 -13.95,0.01c-1.83,-3.49 -1.29,-10.52 -5.73,-9.15c-1.56,-0.25 -2.57,7.15 -3.65,9.42c-3.17,0.19 -11.08,1.32 -14.03,1.19l0.01,0.01Z" style="fill:rgb(245,245,240);fill-rule:nonzero;"/>
                    <path d="M4.276,34.181l0.01,0l-1.056,-0.753c-2.852,-8.293 -5.438,-23.712 -3.88,-31.597c0.036,-0.181 0.115,-0.35 0.231,-0.493c0.523,-0.646 1.607,-1.237 3.01,-1.641c2.78,-0.798 6.879,-1.018 8.983,-0.643c0.741,0.113 1.218,0.204 1.512,0.325l0.408,0.23l0.272,0.261l0.254,0.458l0.068,0.276l0.02,0.359c-0.01,0.266 -0.09,0.636 -0.222,1.157c-0.503,2.779 -1.525,8.099 -1.361,12.618c0.096,2.647 0.523,5.026 1.946,6.212c0.42,0.184 0.777,0.036 1.099,-0.261c0.402,-0.37 0.758,-0.907 1.102,-1.52c1.075,-1.918 1.96,-4.515 2.906,-6.13c0.544,-0.929 1.153,-1.57 1.752,-1.849c1.546,-0.773 2.862,-0.348 4.017,0.842c1.243,1.281 2.279,3.67 3.292,5.797c0.446,0.937 0.888,1.815 1.364,2.474c0.292,0.404 0.534,0.754 0.877,0.798c0.148,0.018 0.287,-0.074 0.457,-0.205c0.37,-0.282 0.754,-0.75 1.183,-1.422c0.708,-1.624 0.874,-3.919 0.861,-6.417c-0.022,-4.089 -0.568,-8.697 -0.502,-12.089c0.006,-0.295 0.126,-0.576 0.336,-0.783c0.354,-0.349 0.956,-0.656 1.767,-0.834c1.38,-0.302 3.501,-0.296 5.589,-0.027c2.102,0.272 4.164,0.814 5.418,1.508c0.741,0.411 1.24,0.904 1.484,1.394c0.094,0.189 0.133,0.401 0.113,0.611c-0.794,8.377 -2.344,18.907 -4.838,29.014c-0.006,0.025 -0.013,0.05 -0.021,0.075l-0.165,0.327l-0.265,0.268l-0.361,0.191c-0.124,0.044 -0.31,0.091 -0.554,0.125c-2.32,0.32 -13.274,-0.125 -13.655,-0.116c-0.43,0.01 -0.829,-0.225 -1.029,-0.606c-0.941,-1.795 -1.294,-4.496 -1.961,-6.577c-0.189,-0.589 -0.402,-1.121 -0.691,-1.533c-0.187,-0.269 -0.402,-0.483 -0.698,-0.566c-0.289,-0.083 -0.631,-0.046 -1.044,0.082c-0.045,0.014 -0.09,0.025 -0.136,0.033c-0.097,0.159 -0.303,0.51 -0.421,0.804c-0.908,2.252 -1.643,6.386 -2.406,7.988c-0.177,0.372 -0.542,0.618 -0.953,0.643c-3.138,0.188 -10.884,1.281 -13.98,1.197c-0.036,0.003 -0.072,0.005 -0.108,0.005l-0.021,-0.009l0.01,0.01c-0.001,-0.003 -0.002,-0.006 -0.003,-0.01Zm0.003,0.001c-0.066,0.007 -0.433,0.024 -0.789,-0.332l0.786,0.331l-0.036,-0.001l0.037,0.002l0.002,0Zm0.018,-1.132c2.955,0.128 10.855,-1 14.023,-1.19c1.08,-2.27 2.09,-9.67 3.65,-9.42c4.44,-1.37 3.9,5.66 5.73,9.15c0.42,-0.01 13.77,0.55 13.95,-0.01c2.48,-10.05 4.02,-20.52 4.81,-28.85c-1.09,-2.19 -10.85,-3.32 -12.45,-1.74c-0.11,5.64 1.48,14.65 -0.49,19.02c-5.39,8.54 -6.45,-10.46 -11.7,-7.8c-2.48,1.11 -4,11.8 -7.96,9.7c-4.26,-3.32 -1.93,-15.33 -1.08,-20.03c0.37,-1.45 0.38,-1.44 -1.39,-1.71c-2.83,-0.51 -9.53,0.15 -10.93,1.88c-1.529,7.737 1.038,22.858 3.837,31Zm-0,0c-0.003,0 -0.005,0 -0.007,-0l0.01,0.01c-0.001,-0.003 -0.002,-0.006 -0.003,-0.01Z" style="fill:rgb(0,51,97);"/>
                </g>
            </g>
        </g>
    </g>
</svg>
