<svg xmlns="http://www.w3.org/2000/svg" viewBox="0 0 574 574">
  <rect width="574" height="574" rx="126" fill="#003561"/>
  <g transform="translate(0 142.068)">
    <g transform="matrix(0.914213 0 0 0.914213 26.0201 274.675)">
      <path
        d="M0-278.139h66c.675 0 4.037 2.494 4.253 3.747 15.469 46.485 28.441 95.022 44.961 141.039 8.26 23.006 23.018 63.02 54.624 43.052 41.959-26.51 34.976-124.487 101.627-137.373 61.55-11.9 79.281 60.728 98.178 101.892 19.372 42.203 49.404 61.94 74.034 9.32 13.606-29.071 24.83-65.503 35.842-96.158 7.52-20.935 14.287-42.158 21.96-63.04l2.038-1.962 67.573.412 1.031 3.093c-23.152 58.933-42.947 119.223-65.871 178.228-17.049 43.881-37.915 90.147-93.267 89.828-63.333-.365-72.156-62.895-93.306-106.755-25.486-52.851-56.086-41.464-77.35 6.004-18.342 40.944-27.131 91.394-80.485 99.515-47.943 7.297-78.685-25.623-95.518-66.166-26.372-63.518-42.504-135.151-67.394-199.636-.722-1.958-.808-3.773 1.07-5.04"
        fill="#ffffff"
      />
    </g>
  </g>
</svg>
