<?xml version="1.0" encoding="UTF-8" standalone="no"?>
<!DOCTYPE svg PUBLIC "-//W3C//DTD SVG 1.1//EN" "http://www.w3.org/Graphics/SVG/1.1/DTD/svg11.dtd">
<svg width="100%" height="100%" viewBox="0 0 1807 285" version="1.1" xmlns="http://www.w3.org/2000/svg" xmlns:xlink="http://www.w3.org/1999/xlink" xml:space="preserve" xmlns:serif="http://www.serif.com/" style="fill-rule:evenodd;clip-rule:evenodd;stroke-linejoin:round;stroke-miterlimit:2;">
    <g transform="matrix(1,0,0,1,1211.55,292.024)">
        <path d="M0,-280.817c0.734,0.225 1.566,1.614 1.555,2.508l-102.197,217.85c-18.067,39.105 -55.702,61.572 -98.63,46.914c-31.448,-10.739 -43.511,-39.433 -57.087,-66.913c-31.995,-64.767 -60.414,-131.378 -93.396,-195.681c-1.534,-2.345 0.394,-4.2 2.784,-4.651c4.336,-0.817 17.065,-0.387 22.013,-0.069c38.467,2.472 57.902,22.185 73.635,55.365c20.693,43.644 35.194,95.107 57.645,137.355c4.443,8.36 10.173,16.448 20.679,16.405c12.486,-0.051 19.104,-15.75 23.676,-25.406c19.676,-41.568 34.083,-86.992 53.646,-128.354c12.488,-26.4 35.102,-55.323 67.677,-55.323c5.543,0 24.364,-1.113 28,0" style="fill:white;fill-rule:nonzero;"/>
    </g>
    <g transform="matrix(1,0,0,1,1791.05,219.819)">
        <path d="M0,-147.612c-1.779,1.748 -14.029,-4.748 -16.731,-5.769c-32.72,-12.356 -113.866,-30.362 -137.705,3.833c-13.605,19.515 5.996,33.64 22.453,40.419c48.469,19.967 145.667,18.754 147.036,90.987c1.278,67.423 -84.098,85.559 -136.595,82.572c-45.459,-2.587 -85.781,-27.007 -129.916,-29.083c-44.25,-2.082 -86.424,20.852 -130.185,26.898c-81.959,11.323 -180.077,-14.467 -196.088,-107.626c-17.477,-101.69 75.137,-167.647 167.19,-172.272c42.17,-2.119 87.779,4.354 126.619,20.463c0.862,1.197 1.682,11.739 1.721,14.078c0.128,7.779 -0.998,16.745 -0.847,25.048c0.074,4.036 3.413,18.965 -1.612,20.368c-1.566,0.438 -25.921,-9.936 -30.378,-11.378c-59.323,-19.18 -163.3,-24.217 -187.978,48.946c-3.202,9.494 -5.521,17.45 8.389,16.399c12.286,-0.928 30.086,-7.329 43.442,-9.568c28.096,-4.71 56.251,-6.109 84.543,-2.173c5.749,0.801 22.42,3.194 26.924,5.073c0.723,0.301 1.303,0.633 1.653,1.369c2.333,3.114 -2.408,14.997 -4.078,18.773c-1.414,3.197 -7.593,14.567 -10.563,15.437c-5.725,1.677 -19.101,-1.577 -25.753,-1.835c-27.575,-1.071 -56.208,0.575 -82.757,8.325c-22.477,6.562 -47.351,17.314 -20.796,40.228c31.263,26.975 87.721,26.436 125.83,17.805c47.582,-10.775 73.585,-37.459 126.177,-23.812c48.807,12.664 94.141,42.695 148.222,25.211c26.231,-8.48 34.461,-34.324 9.105,-50.538c-44.767,-28.628 -154.612,-19.732 -159.304,-92.692c-3.891,-60.515 70.805,-85.189 119.441,-87.527c31.765,-1.527 112.541,6.824 112.541,51.541l-0,20.5Z" style="fill:white;fill-rule:nonzero;"/>
    </g>
    <g transform="matrix(1,0,0,1,1.54613,289.346)">
        <path d="M0,-278.139l66,0c0.675,0 4.037,2.494 4.253,3.747c15.469,46.485 28.441,95.022 44.961,141.039c8.26,23.006 23.018,63.02 54.624,43.052c41.959,-26.51 34.976,-124.487 101.627,-137.373c61.55,-11.9 79.281,60.728 98.178,101.892c19.372,42.203 49.404,61.94 74.034,9.32c13.606,-29.071 24.83,-65.503 35.842,-96.158c7.52,-20.935 14.287,-42.158 21.96,-63.04l2.038,-1.962l67.573,0.412l1.031,3.093c-23.152,58.933 -42.947,119.223 -65.871,178.228c-17.049,43.881 -37.915,90.147 -93.267,89.828c-63.333,-0.365 -72.156,-62.895 -93.306,-106.755c-25.486,-52.851 -56.086,-41.464 -77.35,6.004c-18.342,40.944 -27.131,91.394 -80.485,99.515c-47.943,7.297 -78.685,-25.623 -95.518,-66.166c-26.372,-63.518 -42.504,-135.151 -67.394,-199.636c-0.722,-1.958 -0.808,-3.773 1.07,-5.04" style="fill:white;fill-rule:nonzero;"/>
    </g>
    <g transform="matrix(1,0,0,1,725.836,220.095)">
        <path d="M0,-154.682c-8.5,0.768 -13.471,10.114 -17.312,16.773c-15.857,27.489 -27.806,59.905 -41.556,88.549c-0.2,2.212 0.487,4.586 2.776,5.267c5.263,1.566 24.597,-3.992 31.813,-4.783c18.219,-1.998 36.701,-0.948 54.693,2.284c5.637,1.013 34.896,11.783 31.378,-2.291c-15.223,-29.157 -27.342,-61.173 -43.206,-89.881c-3.826,-6.924 -9.227,-16.763 -18.586,-15.918m-181.29,213.795c-4.349,-1.331 3.521,-14.145 4.978,-17.022c34.13,-67.374 71.304,-138.026 108,-204c16.739,-30.093 35.892,-53.261 74.069,-51.026c45.613,2.67 61.399,43.616 79.974,78.026c31.441,58.243 62.882,117.081 93,176c1.304,2.551 7.922,14.766 7.433,16.417c-0.457,1.547 -2.131,1.506 -3.406,1.653c-11.542,1.327 -37.246,0.616 -48.796,-1.3c-33.242,-5.516 -42.371,-31.292 -68.024,-48.976c-47.068,-32.448 -120.359,-30.643 -157.706,15.75c-7.627,9.473 -12.626,28.29 -23.748,32.252c-1.51,0.538 -7.694,2.226 -8.774,2.226l-57,0Z" style="fill:white;fill-rule:nonzero;"/>
    </g>
</svg>
