<?xml version="1.0" encoding="UTF-8" standalone="no"?>
<!DOCTYPE svg PUBLIC "-//W3C//DTD SVG 1.1//EN" "http://www.w3.org/Graphics/SVG/1.1/DTD/svg11.dtd">
<svg width="100%" height="100%" viewBox="0 0 2047 428" version="1.1" xmlns="http://www.w3.org/2000/svg" xmlns:xlink="http://www.w3.org/1999/xlink" xml:space="preserve" xmlns:serif="http://www.serif.com/" style="fill-rule:evenodd;clip-rule:evenodd;stroke-linejoin:round;stroke-miterlimit:2;">
    <g id="layer1" transform="matrix(3.77953,0,0,3.77953,625.454,-370.16)">
        <path id="path1" d="M198.811,210.825C197.934,210.59 197.38,210.115 197.089,209.35C196.772,208.516 197.259,181.332 197.769,171.45C198.995,147.673 200.832,123.594 201.497,122.574C202.216,121.472 203.118,121.247 207.566,121.062C221.922,120.466 256.817,117.835 268.569,116.462C270.561,116.23 271.7,116.449 272.375,117.196C272.822,117.689 272.832,118.168 272.551,125.733C272.387,130.14 272.251,135.83 272.249,138.377C272.243,144.15 271.965,145.5 270.782,145.517C270.626,145.519 269.674,144.858 268.665,144.048C264.027,140.322 257.998,137.898 250.887,136.9C246.391,136.269 239.969,136.506 236.615,137.427C232.952,138.433 230.862,139.543 228.861,141.547C226.674,143.736 226.117,145.144 226.267,148.104C226.389,150.526 226.929,151.798 228.505,153.376C229.833,154.706 231.582,155.63 234.199,156.385C237.502,157.338 248.891,157.374 258.152,156.46C259.723,156.305 259.825,156.332 260.6,157.107L261.408,157.916L261.408,161.623C261.408,167.426 261.115,167.702 257.114,165.666C255.409,164.797 253.534,164.105 251.558,163.614C248.806,162.93 248.188,162.873 243.549,162.883C239.28,162.892 238.217,162.977 236.502,163.449C232.099,164.66 228.648,167.146 227.176,170.167C226.775,170.989 226.256,172.738 226.023,174.053C225.634,176.248 225.634,176.62 226.026,178.609C226.62,181.622 227.573,183.434 229.637,185.475C231.738,187.553 234.287,188.892 238.027,189.883C240.253,190.473 241.356,190.594 245.492,190.7C251.012,190.841 254.014,190.549 258.366,189.448C265.379,187.674 270.417,184.261 274.854,178.28C277.169,175.159 277.433,174.925 277.997,175.49C278.325,175.817 278.501,177.035 278.78,180.891C278.978,183.629 279.501,189.89 279.943,194.804C281.026,206.858 281.03,207.061 280.175,207.798C279.579,208.312 278.983,208.425 275.412,208.702C256.182,210.196 238.22,210.854 214.108,210.948C206.064,210.98 199.181,210.924 198.811,210.825L198.811,210.825ZM155.972,210.063C141.163,209.511 127.455,208.604 126.505,208.112C125.062,207.366 124.351,206.243 122.086,201.134C112.937,180.493 105.303,155.122 99.765,126.953C98.546,120.753 98.485,119.902 99.196,119.026C99.668,118.443 99.879,118.402 102.305,118.418C103.736,118.427 107.824,118.694 111.39,119.012C114.955,119.33 120.418,119.766 123.53,119.981C127.64,120.265 129.359,120.483 129.809,120.778C131.041,121.585 131.222,122.421 131.912,130.511C133.89,153.689 136.481,169.487 139.818,178.706C141.954,184.605 144.534,187.019 147.496,185.887C149.849,184.989 151.477,182.313 153.57,175.906C155.223,170.844 156.513,165.442 157.825,158.089C159.079,151.058 160.963,137.728 161.677,130.836C162.4,123.858 162.487,123.499 163.698,122.575L164.661,121.841L177.779,121.766C191.808,121.687 191.861,121.691 192.298,123.002C192.86,124.688 188.92,143.019 184.67,158.485C180.076,175.206 172.422,196.703 167.515,206.667C166.489,208.75 166.119,209.249 165.232,209.744C164.064,210.397 164.509,210.381 155.972,210.063L155.972,210.063ZM87.18,205.42C85.143,205.222 79.701,204.701 75.087,204.262C70.473,203.823 66.415,203.335 66.069,203.177C65.723,203.019 65.239,202.551 64.994,202.136C64.605,201.477 64.586,201.147 64.85,199.55C65.393,196.261 64.137,192.018 61.902,189.593C60.31,187.866 57.345,186.446 54.116,185.865C50.952,185.295 44.456,185.441 41.936,186.138C36.51,187.639 32.752,191.743 32.365,196.591C32.179,198.921 31.994,199.356 30.961,199.89C30.302,200.231 29.624,200.251 26.405,200.028C24.324,199.883 18.582,199.523 13.645,199.227C8.515,198.919 4.523,198.568 4.329,198.407C4.142,198.252 3.923,197.915 3.841,197.658C3.661,197.091 10.219,175.487 14.607,162.19C19.845,146.318 25.986,129.832 32.396,114.432C34.383,109.658 34.278,109.688 44.499,110.955C48.765,111.483 55.822,112.398 60.181,112.988C68.709,114.141 69.215,114.288 70.491,115.979C71.347,117.112 77.667,137.804 82.908,156.633C87.058,171.538 92.481,192.488 94.585,201.734C95.076,203.894 94.835,204.842 93.638,205.461C92.775,205.908 92.173,205.904 87.18,205.42L87.18,205.42ZM53.337,179.385C58.159,178.162 59.385,175.899 58.738,169.419C57.742,159.448 55.012,148.168 52.779,144.801C51.696,143.168 50.932,142.613 49.501,142.421C48.201,142.247 46.493,143.154 45.385,144.607C41.785,149.326 38.338,163.05 38.377,172.508C38.396,177.245 39.217,178.509 42.923,179.506C45.129,180.1 50.779,180.035 53.337,179.385ZM292.484,205.474C291.476,205.035 290.34,203.71 290.143,202.743C289.931,201.702 288.796,192.75 287.988,185.738C286.231,170.491 286.273,171.265 287.156,170.239C287.708,169.597 287.832,169.56 288.413,169.866C288.767,170.052 289.593,170.643 290.248,171.179C294.32,174.511 300.461,177.451 306.652,179.033C311.831,180.356 315.207,180.794 320.41,180.819C325.991,180.846 328.887,180.492 332.581,179.333C337.338,177.84 340.629,175.397 342.032,172.315C343.499,169.093 342.787,165.376 340.199,162.752C336.855,159.362 333.288,157.915 320.531,154.773C315.868,153.624 310.808,152.254 309.286,151.728C300.632,148.734 294.562,144.364 292.111,139.363C290.499,136.073 290.157,134.37 290.32,130.44C290.462,127.032 290.809,125.562 292.237,122.333C294.27,117.737 298.973,112.512 304.277,108.958C311.473,104.135 319.798,100.908 329.701,99.102C346.523,96.033 364.612,99.227 371.066,106.404C372.775,108.305 374.315,111.551 374.813,114.3C375.754,119.492 374.219,128.859 371.982,131.573C370.725,133.098 370.169,132.968 365.824,130.132C358.659,125.455 353.324,123.512 345.487,122.726C337.78,121.952 329.277,124.249 325.3,128.179C323.121,130.332 322.427,131.821 322.304,134.605C322.105,139.145 324.368,142.309 329.664,144.894C333.544,146.788 336.501,147.633 347.544,150.003C351.611,150.876 356.605,152.077 358.643,152.671C364.795,154.466 369.6,157.044 372.575,160.145C375.878,163.59 376.707,166.914 375.349,171.27C372.454,180.556 358.055,191.189 340.122,197.284C327.972,201.414 314.794,204.298 302.839,205.443C297.662,205.939 293.579,205.951 292.484,205.474L292.484,205.474ZM-150.24,203.282C-151.511,202.656 -151.782,202.104 -152.959,197.733C-157.612,180.464 -162.073,158.399 -163.889,143.669C-165.141,133.509 -165.468,128.328 -165.483,118.401C-165.498,107.552 -165.47,107.331 -163.827,105.513C-161.577,103.021 -154.881,100.941 -144.727,99.578C-139.906,98.931 -129.863,98.931 -125.148,99.578C-118.887,100.437 -118.92,100.401 -120.231,104.973C-121.913,110.837 -123.187,118.403 -124.269,128.944C-124.924,135.317 -124.921,149.353 -124.264,153.442C-122.951,161.628 -120.44,166.316 -116.398,168.13C-114.985,168.764 -114.514,168.845 -112.752,168.761C-110.351,168.646 -108.854,168.005 -106.917,166.264C-104.218,163.836 -101.917,160.099 -97.445,150.876C-92.703,141.095 -91.303,139.072 -88.227,137.558C-86.641,136.777 -86.385,136.73 -84.313,136.839C-81.381,136.993 -79.712,137.798 -77.561,140.098C-75.577,142.219 -74.709,143.703 -70.265,152.577C-66.339,160.417 -64.315,163.739 -62.197,165.824C-57.027,170.913 -50.232,169.286 -46.839,162.147C-44.316,156.837 -43.635,152.566 -43.473,141.023C-43.341,131.629 -43.628,125.602 -44.887,111.318C-45.607,103.152 -45.607,103.118 -45.096,102.174C-44.168,100.461 -43.418,100.23 -38.285,100.077C-28.938,99.797 -17.468,101.008 -8.414,103.229C-4.087,104.291 -2.446,105.098 -1.638,106.563L-1.027,107.67L-1.453,111.448C-4.179,135.588 -6.536,149.049 -13.741,181.597C-15.034,187.44 -16.354,193.49 -16.675,195.043C-17.165,197.417 -17.382,197.986 -18.039,198.615C-18.785,199.33 -18.927,199.362 -21.25,199.339C-22.586,199.325 -33.324,199.226 -45.111,199.119C-58.162,199 -66.883,198.819 -67.412,198.657C-67.89,198.51 -68.455,198.125 -68.667,197.801C-68.879,197.477 -69.401,195.494 -69.827,193.393C-72.003,182.661 -73.988,177.081 -77.05,173.101C-79.842,169.471 -83.994,168.192 -87.685,169.825C-91.928,171.702 -95.24,179.024 -97.919,192.453C-98.984,197.792 -99.396,198.883 -100.593,199.523C-100.892,199.683 -103.89,199.982 -107.255,200.187C-116.129,200.727 -128.461,201.751 -138.826,202.807C-149.214,203.866 -149.068,203.86 -150.24,203.282L-150.24,203.282Z" style="fill-rule:nonzero;"/>
    </g>
</svg>
